<?xml version="1.0" encoding="iso-8859-1"?>
<!-- Uploaded to: SVG Repo, www.svgrepo.com, Generator: SVG Repo Mixer Tools -->
<svg fill="#000000" height="800px" width="800px" version="1.1" id="Capa_1" xmlns="http://www.w3.org/2000/svg" xmlns:xlink="http://www.w3.org/1999/xlink" 
	 viewBox="0 0 612 612" xml:space="preserve">
<g>
	<path d="M524.932,310.535c4.132-12.144,6.406-25.141,6.406-38.666c0-66.391-54.011-120.402-120.402-120.402
		c-36.901,0-69.961,16.701-92.066,42.927c-14.482-3.798-29.599-5.809-45.062-5.809c-95.878,0-174.276,76.294-177.674,171.358
		c-1.329-0.058-2.661-0.088-3.987-0.088C41.338,359.852,0,401.193,0,452.006s41.338,92.151,92.151,92.151h370.618
		c68.989,0,125.115-56.124,125.115-125.112C587.884,372.673,562.508,332.144,524.932,310.535z M410.937,178.866
		c51.279,0,93,41.721,93,93c0,9.621-1.469,18.904-4.192,27.64c-11.689-3.625-24.108-5.582-36.973-5.582
		c-8.588,0-17.109,0.874-25.461,2.609c-17.745-41.582-50.372-74.08-90.277-92.14C363.707,188.593,386.201,178.866,410.937,178.866z
		 M410.937,132.237c-7.566,0-13.701-6.132-13.701-13.701V81.544c0-7.568,6.135-13.701,13.701-13.701
		c7.566,0,13.701,6.132,13.701,13.701v36.992C424.637,126.104,418.502,132.237,410.937,132.237z M598.299,285.57h-36.992
		c-7.566,0-13.701-6.132-13.701-13.701c0-7.568,6.135-13.701,13.701-13.701h36.992c7.566,0,13.701,6.132,13.701,13.701
		C612,279.437,605.865,285.57,598.299,285.57z M521.855,175.114c-3.507,0-7.012-1.337-9.686-4.012
		c-5.352-5.352-5.352-14.027,0-19.376l26.157-26.16c5.349-5.352,14.027-5.349,19.376-0.003c5.352,5.352,5.352,14.027,0,19.376
		l-26.157,26.16C528.867,173.777,525.362,175.114,521.855,175.114z M298.799,175.114c-3.507,0-7.015-1.337-9.689-4.014
		l-26.157-26.16c-5.352-5.349-5.352-14.024,0-19.376c5.352-5.346,14.027-5.346,19.376,0.003l26.157,26.16
		c5.352,5.349,5.352,14.024,0,19.376C305.811,173.777,302.306,175.114,298.799,175.114z"/>
</g>
</svg>