<?xml version="1.0" encoding="utf-8"?><!-- Uploaded to: SVG Repo, www.svgrepo.com, Generator: SVG Repo Mixer Tools -->
<svg version="1.1" id="Uploaded to svgrepo.com" xmlns="http://www.w3.org/2000/svg" xmlns:xlink="http://www.w3.org/1999/xlink" 
	 width="800px" height="800px" viewBox="0 0 32 32" xml:space="preserve">
<style type="text/css">
	.stone_een{fill:#111918;}
</style>
<path class="stone_een" d="M2.015,14.457C1.772,10.64,4.591,7.43,8.252,7.041C9.127,3.572,12.259,1,16,1c4.418,0,8,3.582,8,8
	c3.366,0,6.085,2.772,5.998,6.158C29.914,18.432,27.14,21,23.865,21H9.141C5.427,21,2.25,18.163,2.015,14.457z M18.694,23H18l1-1h-8
	l-1.457,2.915C9.293,25.414,9.656,26,10.213,26H12l-1.356,3.39c-0.186,0.466,0.353,0.885,0.758,0.59l7.732-5.624
	C19.722,23.929,19.42,23,18.694,23z"/>
</svg>